<svg  xmlns="http://www.w3.org/2000/svg" x="0px" y="0px" viewBox="0 0 100 100" style="border:" >
    <!-- <path stroke="green" stroke-width=".2" d="M10 0 V0 100" />
    <path stroke="green" stroke-width=".2" d="M20 0 V0 100" />
    <path stroke="green" stroke-width=".2" d="M30 0 V0 100" />
    <path stroke="green" stroke-width=".2" d="M40 0 V0 100" />
    <path stroke="green" stroke-width=".2" d="M50 0 V0 100" />
    <path stroke="green" stroke-width=".2" d="M60 0 V0 100" />
    <path stroke="green" stroke-width=".2" d="M70 0 V0 100" />
    <path stroke="green" stroke-width=".2" d="M80 0 V0 100" />
    <path stroke="green" stroke-width=".2" d="M90 0 V0 100" />
    <path stroke="green" stroke-width=".2" d="M100 0 V0 100" />

    <path stroke="green" stroke-width=".2" d="M0 10 H100 1" />
    <path stroke="green" stroke-width=".2" d="M0 20 H100 1" />
    <path stroke="green" stroke-width=".2" d="M0 30 H100 1" />
    <path stroke="green" stroke-width=".2" d="M0 40 H100 1" />
    <path stroke="green" stroke-width=".2" d="M0 50 H100 1" />
    <path stroke="green" stroke-width=".2" d="M0 60 H100 1" />
    <path stroke="green" stroke-width=".2" d="M0 70 H100 1" />
    <path stroke="green" stroke-width=".2" d="M0 80 H100 1" />
    <path stroke="green" stroke-width=".2" d="M0 90 H100 1" />
    <path stroke="green" stroke-width=".2" d="M0 100 H100 1" /> -->
    <path stroke="white" fill="none" stroke-width="21" d="M95 05, 12 50, 95 95" />

</svg>