<svg xmlns="http://www.w3.org/2000/svg" viewBox="0 0 100 100" >
    <!-- <path stroke-width="0.4px" stroke="#ff0" d="M0,10 100,10" />
    <path stroke-width="0.4px" stroke="#ff0" d="M0,20 100,20" />
    <path stroke-width="0.4px" stroke="#ff0" d="M0,30 100,30" />
    <path stroke-width="0.4px" stroke="#ff0" d="M0,40 100,40" />
    <path stroke-width="0.4px" stroke="#ff0" d="M0,50 100,50" />
    <path stroke-width="0.4px" stroke="#ff0" d="M0,60 100,60" />
    <path stroke-width="0.4px" stroke="#ff0" d="M0,70 100,70" />
    <path stroke-width="0.4px" stroke="#ff0" d="M0,80 100,80" />
    <path stroke-width="0.4px" stroke="#ff0" d="M0,90 100,90" />
    <path stroke-width="0.4px" stroke="#ff0" d="M10,0 10,100" />
    <path stroke-width="0.4px" stroke="#ff0" d="M20,0 20,100" />
    <path stroke-width="0.4px" stroke="#ff0" d="M30,0 30,100" />
    <path stroke-width="0.4px" stroke="#ff0" d="M40,0 40,100" />
    <path stroke-width="0.4px" stroke="#ff0" d="M50,0 50,100" />
    <path stroke-width="0.4px" stroke="#ff0" d="M60,0 60,100" />
    <path stroke-width="0.4px" stroke="#ff0" d="M70,0 70,100" />
    <path stroke-width="0.4px" stroke="#ff0" d="M80,0 80,100" />
    <path stroke-width="0.4px" stroke="#ff0" d="M90,0 90,100" /> -->

    <path stroke-width="4px" stroke="#000" d="M20,50 80,50" />
    <path stroke-width="4px" fill="none" stroke="#000" d="M40,30 20,50 40,70" />
    <!-- <path stroke-width="4px" stroke="#000" d="M20,50 40,70 20,20" /> -->
</svg>